<?xml version="1.0" encoding="utf-8"?>
<!-- Generator: Adobe Illustrator 23.1.0, SVG Export Plug-In . SVG Version: 6.00 Build 0)  -->
<svg version="1.1" id="Capa_1" xmlns="http://www.w3.org/2000/svg" xmlns:xlink="http://www.w3.org/1999/xlink" x="0px" y="0px"
	 viewBox="0 0 1200 1200" enable-background="new 0 0 1200 1200" xml:space="preserve">
<path fill="#1D2758" d="M811.874,1124.478c-41.221,0-87.94-11.927-123.776-32.516c-7.109-4.085-14.856-9.442-18.423-18.231
	c-2.599-6.408-2.255-12.715-1.953-18.279c0.129-2.375,0.252-4.621,0.126-6.621c-0.71-11.374-9.19-20.465-19.01-30.991
	c-6.531-7.004-13.287-14.248-18.201-22.879c-4.447-7.804-6.971-16.072-9.412-24.071c-2.147-7.034-4.174-13.676-7.346-19.522
	c-6.22-11.478-16.994-20.351-28.401-29.745c-14.689-12.098-29.877-24.607-36.277-43.904c-2.111-6.364-2.974-12.733-3.806-18.893
	c-0.919-6.786-1.788-13.194-4.243-18.609c-2.638-5.816-7.463-11.149-12.128-16.306l-36.942-40.811
	c-14.668-16.204-31.294-34.57-52.346-42.275c-15.997-5.857-34.884-4.237-51.825,4.441c-16.938,8.678-29.287,23.065-33.881,39.469
	c-0.21,0.749-0.407,1.506-0.608,2.267c-1.243,4.705-2.788,10.565-6.903,15.482c-8.124,9.724-21.744,11.871-40.445,6.385
	c-29.608-8.684-51.678-19.276-69.457-33.336c-23.047-18.228-37.771-42.122-41.454-67.283c-0.803-5.504-1.063-10.927-1.312-16.171
	c-0.261-5.402-0.503-10.502-1.303-15.428c-5.456-33.588-35.735-57.739-68.963-81.546c-35.753-25.616-69.403-54.96-73.539-95.867
	c-0.264-2.587,0.584-5.166,2.327-7.094c1.746-1.929,4.225-3.031,6.825-3.031h280.58c1.842-65.375,6.522-132.868,11.053-198.231
	c4.726-68.16,9.613-138.639,11.248-206.383c0.12-4.992,4.201-8.978,9.196-8.978H605.33c5.082,0,9.199,4.118,9.199,9.199v181.504
	c4.219,8.085,15.32,14.036,25.658,13.706c2.096-0.087,4.393-0.437,6.828-0.809c5.678-0.862,12.125-1.845,18.926,0.105
	c6.259,1.791,10.945,5.537,15.081,8.84c1.162,0.928,2.321,1.86,3.513,2.725c17.908,13.015,43.988,10.523,69.173,6.852
	c3.519-0.503,7.025,1.054,8.993,4.019c1.947,2.938,2.045,6.723,0.261,9.753c0.964,2,6.645,5.369,11.481,4.717
	c2.797-0.365,5.807-1.087,8.99-1.854c9.346-2.237,19.929-4.776,30.29,0.587c3.076,1.596,5.504,3.617,7.645,5.399
	c1.497,1.249,2.911,2.426,4.174,3.117c5.387,2.959,12.257,0.302,22.93-4.417c9.679-4.276,20.657-9.128,32.483-7.181
	c5.875,0.967,10.879,3.486,15.296,5.708c2.501,1.258,4.86,2.447,7.124,3.237c11.643,4.07,24.864-0.563,38.852-5.474
	c14.23-4.995,28.961-10.173,44.695-7.609c14.638,2.369,26.511,10.837,37.993,19.025c12.473,8.891,23.187,16.557,35.202,15.246
	c0.862-0.096,1.731-0.24,2.602-0.377c3.183-0.506,7.148-1.135,11.475-0.273c23.409,4.645,18.615,35.627,17.039,45.809
	c-5.082,32.863,9.963,67.549,22.052,95.423l22.031,50.792c5.633,12.988,11.457,26.416,13.646,41.299
	c2.153,14.65,0.53,28.976-1.042,42.829l-8.613,75.845c-1.033,9.107-2.593,22.864-11.975,32.297
	c-6.84,6.876-15.818,9.559-23.029,11.712l-50.588,15.123c-3.234,0.967-6.747,0.084-9.14-2.306c-2.39-2.393-3.279-5.899-2.312-9.14
	c0.692-2.309-0.099-5.262-2.057-7.705c-1.956-2.441-4.66-3.878-7.064-3.683c-2.402,0.171-4.881,1.949-6.474,4.642
	c-1.596,2.695-1.961,5.729-0.955,7.915c0.41,0.892,1.081,1.953,1.788,3.076c1.398,2.219,3.135,4.98,4.141,8.406
	c4.755,16.183-10.421,29.147-15.41,33.405c-25.808,22.04-55.056,47.021-90.824,58.006c-1.797,0.551-3.635,1.09-5.495,1.632
	c-12.281,3.597-24.978,7.313-28.7,16.321c-0.689,1.668-1.153,3.755-1.644,5.968c-0.464,2.09-0.943,4.252-1.689,6.531
	c-5.92,18.132-22.573,27.212-37.268,35.226c-5.504,3.001-10.703,5.833-15.302,9.026c-3.052,2.117-4.818,3.911-5.259,5.333
	c-0.488,1.593,0.066,4.486,0.602,7.283l0.243,1.276c4.516,24.262,0.267,50.268-11.658,71.883
	c3.438,22.319,11.296,44.263,22.807,63.648c5.163,8.69,20.867,35.136,3.183,50.977c-1.321,1.183-2.953,1.958-4.702,2.234
	C831.45,1123.783,821.819,1124.478,811.874,1124.478z M419.684,718.969c9.083,0,18.01,1.515,26.377,4.579
	c25.316,9.265,44.362,30.302,59.662,47.204l36.945,40.817c5.351,5.914,11.418,12.619,15.24,21.046
	c3.573,7.873,4.663,15.94,5.72,23.744c0.755,5.57,1.467,10.832,3.04,15.569c4.728,14.26,17.252,24.574,30.509,35.495
	c12.266,10.101,24.951,20.546,32.881,35.178c4.052,7.472,6.447,15.323,8.765,22.918c2.246,7.358,4.369,14.311,7.801,20.336
	c3.851,6.762,9.595,12.919,15.674,19.435c11.206,12.017,22.795,24.442,23.915,42.398c0.192,3.073,0.036,5.965-0.117,8.765
	c-0.228,4.166-0.422,7.765,0.632,10.361c1.461,3.6,5.926,6.546,10.535,9.193c40.035,22.999,94.573,34.33,136.986,28.664
	c2.201-4.582-0.527-13.524-8.02-26.14c-13.29-22.373-22.163-47.833-25.664-73.626c-0.279-2.057,0.147-4.154,1.21-5.938
	c10.924-18.378,14.949-40.972,11.035-61.994l-0.225-1.18c-0.871-4.54-1.952-10.188-0.117-16.156
	c2.267-7.373,8.136-12.116,12.356-15.042c5.411-3.755,11.293-6.962,16.982-10.062c12.823-6.992,24.933-13.596,28.587-24.783
	c0.467-1.431,0.83-3.072,1.216-4.809c0.611-2.749,1.303-5.866,2.602-9.011c7.091-17.156,25.634-22.585,40.535-26.945
	c1.782-0.521,3.543-1.036,5.262-1.566c32.12-9.864,59.829-33.528,84.277-54.406c9.176-7.837,10.34-12.062,9.706-14.23
	c-0.287-0.973-1.147-2.339-2.057-3.782c-0.943-1.5-2.015-3.204-2.929-5.187c-3.549-7.708-2.866-17.045,1.83-24.981
	c4.696-7.933,12.55-13.027,21.01-13.622c8.463-0.659,16.956,3.336,22.72,10.526c2.372,2.959,4.106,6.25,5.157,9.661l39.313-11.751
	c5.489-1.641,11.712-3.501,15.255-7.061c4.501-4.525,5.714-12.368,6.741-21.393l8.613-75.848c1.437-12.682,2.923-25.796,1.12-38.076
	c-1.836-12.473-7.169-24.766-12.323-36.654l-22.031-50.795c-13.032-30.045-29.251-67.436-23.358-105.554
	c3.411-22.025-1.003-24.667-2.438-24.951c-1.099-0.207-3.001,0.087-5.013,0.401c-1.153,0.183-2.303,0.359-3.453,0.488
	c-18.992,2.105-34.342-8.87-47.914-18.552c-10.212-7.28-19.857-14.159-30.252-15.845c-11.146-1.8-23.047,2.384-35.657,6.81
	c-16.372,5.744-33.291,11.691-51.025,5.48c-3.39-1.186-6.406-2.701-9.319-4.168c-3.555-1.788-6.912-3.477-10.014-3.989
	c-6.441-1.057-14.018,2.3-22.055,5.854c-11.931,5.277-25.448,11.26-39.208,3.725c-2.824-1.548-5.1-3.441-7.109-5.112
	c-1.56-1.3-3.034-2.527-4.336-3.204c-4.264-2.21-10.409-0.737-17.53,0.97c-3.51,0.841-7.139,1.713-10.9,2.204
	c-10.933,1.44-23.484-4.067-29.168-12.775c-0.907-1.389-1.62-2.824-2.141-4.282c-25.517,3.108-51.232,3.309-71.799-11.643
	c-1.416-1.027-2.8-2.129-4.18-3.234c-3.057-2.444-5.944-4.749-8.66-5.528c-2.947-0.839-6.72-0.267-11.092,0.398
	c-2.821,0.431-5.735,0.874-8.849,1c-18.63,0.818-37.654-10.682-44.129-26.622c-0.446-1.099-0.677-2.276-0.677-3.462V93.921H380.239
	c-1.842,65.375-6.522,132.868-11.053,198.231c-4.725,68.16-9.613,138.639-11.248,206.383c-0.12,4.992-4.201,8.978-9.196,8.978
	H70.204c8.041,30.237,37.007,53.226,64.097,72.637c36.507,26.155,69.819,52.99,76.408,93.549c0.967,5.959,1.249,11.826,1.521,17.5
	c0.24,5.028,0.467,9.774,1.141,14.389c2.956,20.196,15.59,40.43,34.66,55.511c15.865,12.547,35.956,22.118,63.222,30.114
	c6.208,1.815,17.225,4.169,21.154-0.53c1.485-1.776,2.33-4.98,3.225-8.373c0.225-0.85,0.446-1.698,0.683-2.533
	c5.968-21.328,21.72-39.873,43.209-50.884C392.365,722.314,406.197,718.969,419.684,718.969z"/>
</svg>
